<?xml version="1.0" standalone="no"?>
<!DOCTYPE svg PUBLIC "-//W3C//DTD SVG 20010904//EN"
 "http://www.w3.org/TR/2001/REC-SVG-20010904/DTD/svg10.dtd">
<svg version="1.0" xmlns="http://www.w3.org/2000/svg"
 width="357.000000pt" height="157.000000pt" viewBox="0 0 357.000000 157.000000"
 preserveAspectRatio="xMidYMid meet">

<g transform="translate(0.000000,157.000000) scale(0.100000,-0.100000)"
fill="#000000" stroke="none">
<path d="M2670 1542 c-85 -46 -93 -184 -14 -237 62 -41 192 -11 208 48 8 29 6
118 -2 139 -24 57 -129 85 -192 50z"/>
<path d="M700 1468 c-14 -5 -55 -38 -91 -74 l-65 -65 78 -79 c75 -76 81 -80
123 -80 38 0 47 -4 70 -35 18 -22 27 -47 27 -70 0 -32 9 -46 75 -111 57 -55
82 -74 103 -74 50 0 86 -19 103 -56 21 -44 21 -64 1 -108 -19 -40 -49 -56
-104 -56 -61 0 -116 67 -104 127 4 24 -5 37 -61 93 l-65 64 0 -186 c0 -149 3
-187 14 -191 8 -3 22 -26 31 -51 17 -44 17 -46 -5 -90 -17 -37 -29 -48 -60
-57 -21 -6 -50 -9 -64 -5 -44 11 -86 68 -86 117 0 25 41 89 58 89 9 0 12 46
12 195 0 121 -4 195 -10 195 -5 0 -22 18 -36 40 -20 31 -25 48 -21 74 5 31 0
39 -72 110 l-77 76 -222 -223 c-209 -210 -222 -225 -222 -260 0 -35 15 -52
330 -367 197 -196 341 -332 356 -336 14 -4 36 -1 49 6 12 7 167 157 344 334
310 311 321 324 321 361 0 37 -11 49 -323 362 -214 214 -333 326 -353 332 -16
5 -40 4 -54 -1z"/>
<path d="M3166 1388 c-3 -13 -6 -31 -6 -40 0 -10 -11 -42 -25 -71 -27 -60 -78
-102 -137 -112 l-38 -7 0 -69 0 -69 59 0 59 0 4 -252 c4 -283 10 -315 73 -362
74 -57 238 -61 374 -9 l43 17 -5 45 c-3 25 -10 58 -16 73 -10 25 -11 26 -48
12 -62 -22 -127 -18 -160 10 l-28 24 -3 221 -3 221 115 0 116 0 0 75 0 74
-112 3 -113 3 -3 118 -3 117 -68 0 c-63 0 -69 -2 -75 -22z"/>
<path d="M1895 1147 c-149 -50 -218 -139 -219 -282 -1 -61 3 -78 33 -132 19
-35 37 -63 40 -63 3 -1 17 -10 30 -21 l24 -20 -44 -42 c-72 -68 -89 -96 -89
-145 0 -36 5 -49 29 -71 l29 -28 -29 -34 c-36 -42 -53 -98 -44 -150 19 -109
136 -159 371 -159 167 0 304 39 360 101 91 103 97 236 15 318 -33 33 -48 40
-122 54 -46 9 -151 22 -234 28 -82 7 -151 13 -153 14 -2 2 6 18 17 36 l20 33
113 1 c144 1 202 20 268 86 39 39 49 57 60 108 15 72 8 141 -20 188 -11 19
-20 36 -20 38 0 2 28 5 63 7 l62 3 3 68 3 67 -108 0 c-59 0 -178 2 -263 5
-115 4 -165 2 -195 -8z m223 -157 c86 -53 80 -189 -10 -230 -52 -24 -95 -25
-147 -4 -33 13 -43 24 -57 61 -29 75 1 152 71 183 37 16 108 11 143 -10z m-52
-699 c134 -11 154 -19 154 -66 0 -46 -26 -62 -126 -76 -61 -9 -97 -9 -153 1
-108 18 -134 55 -91 125 18 30 24 32 63 29 23 -3 92 -8 153 -13z"/>
<path d="M2556 1133 c-3 -16 -8 -44 -12 -65 l-6 -36 49 -14 48 -14 3 -252 c2
-197 0 -253 -10 -256 -7 -3 -30 -7 -50 -11 l-38 -6 0 -59 0 -60 215 0 215 0 0
60 0 59 -37 6 c-21 4 -44 8 -50 10 -10 3 -13 79 -13 335 l0 330 -154 0 -154 0
-6 -27z"/>
</g>
</svg>
